# Blender v2.79 (sub 0) OBJ File: 'projector_scherm.blend'
# www.blender.org
mtllib projector_scherm.mtl
o Icosphere
v -0.005704 -0.385943 -0.010462
v 0.022656 -0.364278 0.010142
v -0.016536 -0.364278 0.022877
v -0.040759 -0.364278 -0.010462
v -0.016536 -0.364278 -0.043801
v 0.022656 -0.364278 -0.031067
v 0.005128 -0.329223 0.022877
v -0.034064 -0.329223 0.010142
v -0.034064 -0.329223 -0.031067
v 0.005128 -0.329223 -0.043801
v 0.029351 -0.329223 -0.010462
v -0.005704 -0.307558 -0.010462
v -0.012071 -0.380090 0.009134
v 0.010965 -0.380090 0.001649
v 0.004598 -0.367355 0.021245
v 0.027635 -0.367355 -0.010462
v 0.010965 -0.380090 -0.022573
v -0.026309 -0.380090 -0.010462
v -0.032676 -0.367355 0.009134
v -0.012071 -0.380090 -0.030058
v -0.032676 -0.367355 -0.030059
v 0.004598 -0.367355 -0.042170
v 0.031570 -0.346750 0.001649
v 0.031570 -0.346750 -0.022573
v -0.005704 -0.346750 0.028730
v 0.017333 -0.346750 0.021245
v -0.042978 -0.346750 0.001649
v -0.028741 -0.346750 0.021245
v -0.028741 -0.346750 -0.042170
v -0.042978 -0.346750 -0.022573
v 0.017333 -0.346750 -0.042170
v -0.005704 -0.346750 -0.049655
v 0.021268 -0.326145 0.009134
v -0.016007 -0.326145 0.021245
v -0.039043 -0.326145 -0.010462
v -0.016007 -0.326145 -0.042170
v 0.021268 -0.326145 -0.030059
v 0.000663 -0.313411 0.009134
v 0.014901 -0.313411 -0.010462
v -0.022374 -0.313411 0.001649
v -0.022374 -0.313411 -0.022573
v 0.000663 -0.313411 -0.030058
vn 0.1024 -0.9435 0.3151
vn 0.7002 -0.6617 0.2680
vn -0.2680 -0.9435 0.1947
vn -0.2680 -0.9435 -0.1947
vn 0.1024 -0.9435 -0.3151
vn 0.9050 -0.3304 0.2680
vn 0.0247 -0.3304 0.9435
vn -0.8897 -0.3304 0.3151
vn -0.5746 -0.3304 -0.7488
vn 0.5346 -0.3304 -0.7779
vn 0.8026 -0.1256 0.5831
vn -0.3066 -0.1256 0.9435
vn -0.9921 -0.1256 0.0000
vn -0.3066 -0.1256 -0.9435
vn 0.8026 -0.1256 -0.5831
vn 0.4089 0.6617 0.6284
vn -0.4713 0.6617 0.5831
vn -0.7002 0.6617 -0.2680
vn 0.0385 0.6617 -0.7488
vn 0.7240 0.6617 -0.1947
vn 0.2680 0.9435 -0.1947
vn 0.4911 0.7947 -0.3568
vn 0.4089 0.6617 -0.6284
vn -0.1024 0.9435 -0.3151
vn -0.1876 0.7947 -0.5773
vn -0.4713 0.6617 -0.5831
vn -0.3313 0.9435 0.0000
vn -0.6071 0.7947 0.0000
vn -0.7002 0.6617 0.2680
vn -0.1024 0.9435 0.3151
vn -0.1876 0.7947 0.5773
vn 0.0385 0.6617 0.7488
vn 0.2680 0.9435 0.1947
vn 0.4911 0.7947 0.3568
vn 0.7240 0.6617 0.1947
vn 0.8897 0.3304 -0.3151
vn 0.7947 0.1876 -0.5773
vn 0.5746 0.3304 -0.7488
vn -0.0247 0.3304 -0.9435
vn -0.3035 0.1876 -0.9342
vn -0.5346 0.3304 -0.7779
vn -0.9050 0.3304 -0.2680
vn -0.9822 0.1876 0.0000
vn -0.9050 0.3304 0.2680
vn -0.5346 0.3304 0.7779
vn -0.3035 0.1876 0.9342
vn -0.0247 0.3304 0.9435
vn 0.5746 0.3304 0.7488
vn 0.7947 0.1876 0.5773
vn 0.8897 0.3304 0.3151
vn 0.3066 0.1256 -0.9435
vn 0.3035 -0.1876 -0.9342
vn 0.0247 -0.3304 -0.9435
vn -0.8026 0.1256 -0.5831
vn -0.7947 -0.1876 -0.5773
vn -0.8897 -0.3304 -0.3151
vn -0.8026 0.1256 0.5831
vn -0.7947 -0.1876 0.5773
vn -0.5746 -0.3304 0.7488
vn 0.3066 0.1256 0.9435
vn 0.3035 -0.1876 0.9342
vn 0.5346 -0.3304 0.7779
vn 0.9921 0.1256 0.0000
vn 0.9822 -0.1876 0.0000
vn 0.9050 -0.3304 -0.2680
vn 0.4713 -0.6617 -0.5831
vn 0.1876 -0.7947 -0.5773
vn -0.0385 -0.6617 -0.7488
vn -0.4089 -0.6617 -0.6284
vn -0.4911 -0.7947 -0.3568
vn -0.7240 -0.6617 -0.1947
vn -0.7240 -0.6617 0.1947
vn -0.4911 -0.7947 0.3568
vn -0.4089 -0.6617 0.6284
vn 0.7002 -0.6617 -0.2680
vn 0.6071 -0.7947 0.0000
vn 0.3313 -0.9435 0.0000
vn -0.0385 -0.6617 0.7488
vn 0.1876 -0.7947 0.5773
vn 0.4713 -0.6617 0.5831
usemtl Material.007
s off
f 1//1 14//1 13//1
f 2//2 14//2 16//2
f 1//3 13//3 18//3
f 1//4 18//4 20//4
f 1//5 20//5 17//5
f 2//6 16//6 23//6
f 3//7 15//7 25//7
f 4//8 19//8 27//8
f 5//9 21//9 29//9
f 6//10 22//10 31//10
f 2//11 23//11 26//11
f 3//12 25//12 28//12
f 4//13 27//13 30//13
f 5//14 29//14 32//14
f 6//15 31//15 24//15
f 7//16 33//16 38//16
f 8//17 34//17 40//17
f 9//18 35//18 41//18
f 10//19 36//19 42//19
f 11//20 37//20 39//20
f 39//21 42//21 12//21
f 39//22 37//22 42//22
f 37//23 10//23 42//23
f 42//24 41//24 12//24
f 42//25 36//25 41//25
f 36//26 9//26 41//26
f 41//27 40//27 12//27
f 41//28 35//28 40//28
f 35//29 8//29 40//29
f 40//30 38//30 12//30
f 40//31 34//31 38//31
f 34//32 7//32 38//32
f 38//33 39//33 12//33
f 38//34 33//34 39//34
f 33//35 11//35 39//35
f 24//36 37//36 11//36
f 24//37 31//37 37//37
f 31//38 10//38 37//38
f 32//39 36//39 10//39
f 32//40 29//40 36//40
f 29//41 9//41 36//41
f 30//42 35//42 9//42
f 30//43 27//43 35//43
f 27//44 8//44 35//44
f 28//45 34//45 8//45
f 28//46 25//46 34//46
f 25//47 7//47 34//47
f 26//48 33//48 7//48
f 26//49 23//49 33//49
f 23//50 11//50 33//50
f 31//51 32//51 10//51
f 31//52 22//52 32//52
f 22//53 5//53 32//53
f 29//54 30//54 9//54
f 29//55 21//55 30//55
f 21//56 4//56 30//56
f 27//57 28//57 8//57
f 27//58 19//58 28//58
f 19//59 3//59 28//59
f 25//60 26//60 7//60
f 25//61 15//61 26//61
f 15//62 2//62 26//62
f 23//63 24//63 11//63
f 23//64 16//64 24//64
f 16//65 6//65 24//65
f 17//66 22//66 6//66
f 17//67 20//67 22//67
f 20//68 5//68 22//68
f 20//69 21//69 5//69
f 20//70 18//70 21//70
f 18//71 4//71 21//71
f 18//72 19//72 4//72
f 18//73 13//73 19//73
f 13//74 3//74 19//74
f 16//75 17//75 6//75
f 16//76 14//76 17//76
f 14//77 1//77 17//77
f 13//78 15//78 3//78
f 13//79 14//79 15//79
f 14//80 2//80 15//80
o Plane
v -0.009290 0.664125 -0.001110
v -0.002830 0.664125 -0.001110
v -0.009290 0.658670 -0.018580
v -0.002830 0.658670 -0.018580
v -0.009290 0.649453 0.015902
v -0.002830 0.649453 0.015902
v -0.008965 0.624540 0.001688
v -0.002505 0.624540 0.001688
v -0.009290 0.622887 -0.020877
v -0.002830 0.622887 -0.020877
v -0.009290 0.558298 -0.016822
v -0.002830 0.558298 -0.016822
v -0.009290 0.485127 -0.011606
v -0.002830 0.485127 -0.011606
v -0.009290 -0.337484 -0.011606
v -0.002830 -0.337484 -0.011606
v -0.009290 0.658670 -0.018580
v -0.009290 0.664125 -0.001110
v -0.002830 0.664125 -0.001110
v -0.002830 0.658670 -0.018580
v -0.009290 0.649453 0.015902
v -0.002830 0.649453 0.015902
v -0.008965 0.624540 0.001688
v -0.002505 0.624540 0.001688
v -0.002830 0.622887 -0.020877
v -0.009290 0.622887 -0.020877
v -0.002830 0.558298 -0.016822
v -0.009290 0.558298 -0.016822
v -0.002830 0.485127 -0.011606
v -0.009290 0.485127 -0.011606
v -0.002830 -0.337484 -0.011606
v -0.009290 -0.337484 -0.011606
v -0.009290 0.659242 -0.026116
v -0.009290 0.667673 0.001045
v -0.002830 0.667673 0.001045
v -0.002830 0.659242 -0.026116
v -0.009290 0.653001 0.020501
v -0.002830 0.653001 0.020501
v -0.008965 0.625112 0.007375
v -0.002505 0.625112 0.007375
v -0.002830 0.623459 -0.028414
v -0.009290 0.623459 -0.028414
v -0.002830 0.558870 -0.024358
v -0.009290 0.558870 -0.024358
v -0.002830 0.485699 -0.019143
v -0.009290 0.485699 -0.019143
v -0.002830 -0.336911 -0.019143
v -0.009290 -0.336911 -0.019143
v -0.005440 0.616671 -0.008418
v -0.007690 0.621855 -0.006010
v -0.001230 0.621855 -0.006010
v 0.001020 0.616671 -0.008418
v -0.010564 0.632086 -0.024241
v -0.010564 0.637269 -0.021833
v -0.004104 0.637269 -0.021833
v -0.004104 0.632086 -0.024241
vn 0.0000 -0.9545 0.2981
vn 0.0000 -0.7573 -0.6531
vn 0.0000 0.4956 -0.8686
vn 0.0000 -0.0641 0.9979
vn 0.0000 0.0627 0.9980
vn 0.0000 0.0711 0.9975
vn 0.0000 0.0000 1.0000
vn 1.0000 0.0000 0.0000
vn -0.9999 -0.0155 0.0062
vn 0.9999 0.0155 -0.0062
vn -1.0000 0.0000 0.0000
vn 0.0000 0.9442 -0.3293
vn 0.0000 0.9551 -0.2964
vn 0.0000 0.7984 0.6021
vn 0.0000 -0.4258 0.9048
vn 0.0000 0.0641 -0.9979
vn 0.0000 -0.0627 -0.9980
vn 0.0000 -0.0711 -0.9975
vn 0.0000 0.0000 -1.0000
vn 0.0000 -0.9971 -0.0757
vn 0.0000 -0.7163 -0.6978
vn 0.0000 -0.8819 0.4714
vn 0.9036 0.4280 -0.0181
vn -0.9036 -0.4280 0.0181
vn 0.0000 0.4213 -0.9069
vn 0.0000 0.7163 0.6978
vn 0.9741 0.2243 -0.0277
vn -0.9741 -0.2243 0.0277
usemtl Material.008
s off
f 43//81 45//81 46//81 44//81
f 44//82 48//82 47//82 43//82
f 48//83 50//83 49//83 47//83
f 45//84 51//84 52//84 46//84
f 51//85 53//85 54//85 52//85
f 53//86 55//86 56//86 54//86
f 55//87 57//87 58//87 56//87
f 61//88 62//88 78//88 77//88
f 63//89 65//89 81//89 79//89
f 66//90 64//90 80//90 82//90
f 67//88 69//88 85//88 83//88
f 59//91 60//91 76//91 75//91
f 65//92 66//92 93//92 92//92
f 70//91 68//91 84//91 86//91
f 53//87 51//87 68//87 70//87
f 49//87 50//87 66//87 65//87
f 45//87 43//87 60//87 59//87
f 52//87 54//87 69//87 67//87
f 50//87 48//87 64//87 66//87
f 47//87 49//87 65//87 63//87
f 44//87 46//87 62//87 61//87
f 55//87 53//87 70//87 72//87
f 54//87 56//87 71//87 69//87
f 51//87 45//87 59//87 68//87
f 58//87 57//87 74//87 73//87
f 46//87 52//87 67//87 62//87
f 48//87 44//87 61//87 64//87
f 57//87 55//87 72//87 74//87
f 43//87 47//87 63//87 60//87
f 56//87 58//87 73//87 71//87
f 76//93 77//93 78//93 75//93
f 77//94 76//94 79//94 80//94
f 80//95 79//95 81//95 82//95
f 75//96 78//96 83//96 84//96
f 84//97 83//97 85//97 86//97
f 86//98 85//98 87//98 88//98
f 88//99 87//99 89//99 90//99
f 72//91 70//91 86//91 88//91
f 69//88 71//88 87//88 85//88
f 68//91 59//91 75//91 84//91
f 73//100 74//100 90//100 89//100
f 62//88 67//88 83//88 78//88
f 64//88 61//88 77//88 80//88
f 74//91 72//91 88//91 90//91
f 60//91 63//91 79//91 76//91
f 71//88 73//88 89//88 87//88
f 94//101 91//101 95//101 98//101
f 82//102 81//102 91//102 94//102
f 66//103 82//103 94//103 93//103
f 81//104 65//104 92//104 91//104
f 96//105 97//105 98//105 95//105
f 92//106 93//106 97//106 96//106
f 93//107 94//107 98//107 97//107
f 91//108 92//108 96//108 95//108
o Cylinder
v 0.119922 0.649014 -0.018161
v -0.032786 0.649014 -0.018161
v 0.119922 0.660033 -0.012855
v -0.032786 0.660033 -0.012855
v 0.119922 0.662754 -0.000932
v -0.032786 0.662754 -0.000932
v 0.119922 0.655129 0.008630
v -0.032786 0.655129 0.008630
v 0.119922 0.642899 0.008630
v -0.032786 0.642899 0.008630
v 0.119922 0.635274 -0.000932
v -0.032786 0.635274 -0.000932
v 0.119922 0.637995 -0.012855
v -0.032786 0.637995 -0.012855
v 0.136303 0.653123 -0.018161
v 0.129248 0.661586 -0.012855
v 0.127505 0.663677 -0.000932
v 0.132388 0.657820 0.008630
v 0.140219 0.648426 0.008630
v 0.145101 0.642568 -0.000932
v 0.143358 0.644659 -0.012855
v 0.143142 0.664193 -0.018161
v 0.132729 0.667796 -0.012855
v 0.130157 0.668686 -0.000932
v 0.137363 0.666193 0.008630
v 0.148921 0.662194 0.008630
v 0.156127 0.659700 -0.000932
v 0.153555 0.660590 -0.012855
v 0.141772 0.744858 -0.018161
v 0.130788 0.745730 -0.012855
v 0.128075 0.745946 -0.000932
v 0.135676 0.745342 0.008630
v 0.147868 0.744374 0.008630
v 0.155469 0.743770 -0.000932
v 0.152756 0.743986 -0.012855
v -0.162807 0.649014 -0.018161
v -0.010098 0.649014 -0.018161
v -0.162807 0.660033 -0.012855
v -0.010098 0.660033 -0.012855
v -0.162807 0.662754 -0.000932
v -0.010098 0.662754 -0.000932
v -0.162807 0.655129 0.008630
v -0.010098 0.655129 0.008630
v -0.162807 0.642899 0.008630
v -0.010098 0.642899 0.008630
v -0.162807 0.635274 -0.000932
v -0.010098 0.635274 -0.000932
v -0.162807 0.637995 -0.012855
v -0.010098 0.637995 -0.012855
v -0.179188 0.653123 -0.018161
v -0.172133 0.661586 -0.012855
v -0.170390 0.663677 -0.000932
v -0.175273 0.657820 0.008630
v -0.183103 0.648426 0.008630
v -0.187986 0.642568 -0.000932
v -0.186243 0.644659 -0.012855
v -0.186027 0.664193 -0.018161
v -0.175614 0.667796 -0.012855
v -0.173042 0.668686 -0.000932
v -0.180248 0.666193 0.008630
v -0.191806 0.662194 0.008630
v -0.199012 0.659700 -0.000932
v -0.196440 0.660590 -0.012855
v -0.184657 0.744858 -0.018161
v -0.173672 0.745730 -0.012855
v -0.170960 0.745946 -0.000932
v -0.178561 0.745342 0.008630
v -0.190752 0.744374 0.008630
v -0.198354 0.743770 -0.000932
v -0.195641 0.743986 -0.012855
vn -0.0000 0.4339 -0.9010
vn -0.0000 0.9749 -0.2225
vn 0.0000 0.7818 0.6235
vn 0.0000 0.0000 1.0000
vn 0.0000 -0.7818 0.6235
vn -1.0000 0.0000 0.0000
vn -0.0000 -0.9749 -0.2225
vn -0.0000 -0.4339 -0.9010
vn -0.1418 0.9683 -0.2057
vn 0.8219 -0.5276 -0.2146
vn 0.2173 -0.7708 0.5989
vn -0.0987 0.4482 -0.8885
vn -0.1426 0.7914 0.5944
vn 0.2699 -0.9399 -0.2094
vn 0.1194 -0.4413 -0.8894
vn -0.7920 -0.0191 0.6102
vn -0.8572 0.4686 -0.2136
vn 0.3784 -0.2387 -0.8943
vn 0.6685 -0.4268 0.6090
vn -0.6899 0.3932 0.6078
vn -0.3846 0.2296 -0.8941
vn 0.0792 0.9969 0.0000
vn -0.4459 -0.0093 -0.8950
vn 0.9764 0.0085 -0.2160
vn -0.9762 -0.0253 -0.2152
vn 0.4453 0.0059 -0.8954
vn 0.7913 0.0081 0.6114
vn 1.0000 -0.0000 -0.0000
vn 0.1418 0.9683 -0.2057
vn -0.8219 -0.5276 -0.2146
vn -0.2173 -0.7708 0.5989
vn 0.0987 0.4482 -0.8885
vn 0.1426 0.7914 0.5944
vn -0.2699 -0.9399 -0.2094
vn -0.1194 -0.4413 -0.8894
vn 0.7920 -0.0191 0.6102
vn 0.8572 0.4686 -0.2136
vn -0.3784 -0.2387 -0.8943
vn -0.6685 -0.4268 0.6090
vn 0.6899 0.3932 0.6078
vn 0.3846 0.2296 -0.8941
vn -0.0792 0.9969 0.0000
vn 0.4459 -0.0093 -0.8950
vn -0.9764 0.0085 -0.2160
vn 0.9762 -0.0253 -0.2152
vn -0.4453 0.0059 -0.8954
vn -0.7913 0.0081 0.6114
usemtl None
s off
f 99//109 100//109 102//109 101//109
f 101//110 102//110 104//110 103//110
f 103//111 104//111 106//111 105//111
f 105//112 106//112 108//112 107//112
f 107//113 108//113 110//113 109//113
f 102//114 100//114 112//114 110//114 108//114 106//114 104//114
f 109//115 110//115 112//115 111//115
f 111//116 112//116 100//116 99//116
f 101//117 103//117 115//117 114//117
f 118//118 119//118 126//118 125//118
f 107//119 109//119 118//119 117//119
f 99//120 101//120 114//120 113//120
f 103//121 105//121 116//121 115//121
f 109//122 111//122 119//122 118//122
f 105//112 107//112 117//112 116//112
f 111//123 99//123 113//123 119//123
f 122//124 123//124 130//124 129//124
f 116//112 117//112 124//112 123//112
f 114//125 115//125 122//125 121//125
f 119//126 113//126 120//126 126//126
f 117//127 118//127 125//127 124//127
f 115//128 116//128 123//128 122//128
f 113//129 114//129 121//129 120//129
f 127//130 128//130 129//130 130//130 131//130 132//130 133//130
f 120//131 121//131 128//131 127//131
f 125//132 126//132 133//132 132//132
f 123//112 124//112 131//112 130//112
f 121//133 122//133 129//133 128//133
f 126//134 120//134 127//134 133//134
f 124//135 125//135 132//135 131//135
f 134//109 136//109 137//109 135//109
f 136//110 138//110 139//110 137//110
f 138//111 140//111 141//111 139//111
f 140//112 142//112 143//112 141//112
f 142//113 144//113 145//113 143//113
f 137//136 139//136 141//136 143//136 145//136 147//136 135//136
f 144//115 146//115 147//115 145//115
f 146//116 134//116 135//116 147//116
f 136//137 149//137 150//137 138//137
f 153//138 160//138 161//138 154//138
f 142//139 152//139 153//139 144//139
f 134//140 148//140 149//140 136//140
f 138//141 150//141 151//141 140//141
f 144//142 153//142 154//142 146//142
f 140//112 151//112 152//112 142//112
f 146//143 154//143 148//143 134//143
f 157//144 164//144 165//144 158//144
f 151//112 158//112 159//112 152//112
f 149//145 156//145 157//145 150//145
f 154//146 161//146 155//146 148//146
f 152//147 159//147 160//147 153//147
f 150//148 157//148 158//148 151//148
f 148//149 155//149 156//149 149//149
f 162//150 168//150 167//150 166//150 165//150 164//150 163//150
f 155//151 162//151 163//151 156//151
f 160//152 167//152 168//152 161//152
f 158//112 165//112 166//112 159//112
f 156//153 163//153 164//153 157//153
f 161//154 168//154 162//154 155//154
f 159//155 166//155 167//155 160//155
o Cube
v 2.427310 0.817711 -0.042769
v -2.470195 0.817711 -0.042770
v -2.470195 0.817711 -0.052565
v 2.427311 0.817711 -0.052565
v 2.427309 4.574615 -0.042769
v -2.470196 4.574615 -0.042770
v -2.470194 4.574615 -0.052565
v 2.427310 4.574615 -0.052565
v 2.292238 0.946893 -0.042769
v -2.335124 0.946893 -0.042770
v 2.292237 4.445433 -0.042769
v -2.335125 4.445433 -0.042770
vn -0.0000 -0.0000 1.0000
vn 0.0000 -1.0000 0.0000
vn 0.0000 1.0000 0.0000
vn -1.0000 -0.0000 -0.0001
vn 0.0000 -0.0000 -1.0000
vn 1.0000 0.0000 0.0001
usemtl Material
s off
f 177//156 179//156 180//156 178//156
usemtl Material.003
f 169//157 170//157 171//157 172//157
f 173//158 176//158 175//158 174//158
f 173//156 174//156 180//156 179//156
f 170//159 174//159 175//159 171//159
f 171//160 175//160 176//160 172//160
f 173//161 169//161 172//161 176//161
f 174//156 170//156 178//156 180//156
f 169//156 173//156 179//156 177//156
f 170//156 169//156 177//156 178//156
o Cube.001
v -2.519363 4.541096 0.171483
v -2.639318 4.541096 0.171483
v -2.639318 4.541096 -0.128517
v -2.519363 4.541096 -0.128517
v -2.519363 4.841096 0.171484
v -2.639318 4.841096 0.171483
v -2.639318 4.841096 -0.128517
v -2.519363 4.841096 -0.128517
vn 0.0000 -1.0000 0.0000
vn 0.0000 1.0000 0.0000
vn -0.0000 0.0000 1.0000
vn -1.0000 -0.0000 0.0000
vn 0.0000 -0.0000 -1.0000
vn 1.0000 0.0000 0.0000
usemtl Material.001
s off
f 181//162 182//162 183//162 184//162
f 185//163 188//163 187//163 186//163
f 181//164 185//164 186//164 182//164
f 182//165 186//165 187//165 183//165
f 183//166 187//166 188//166 184//166
f 185//167 181//167 184//167 188//167
o Cube.002
v 2.478347 0.724556 0.037408
v -2.521232 0.724556 0.037408
v -2.521232 0.724556 -0.062592
v 2.478348 0.724556 -0.062592
v 2.478346 0.824556 0.037408
v -2.521234 0.824556 0.037408
v -2.521231 0.824556 -0.062592
v 2.478348 0.824556 -0.062592
vn 0.0000 -1.0000 0.0000
vn 0.0000 1.0000 0.0000
vn -0.0000 0.0000 1.0000
vn -1.0000 -0.0000 -0.0000
vn 0.0000 -0.0000 -1.0000
vn 1.0000 0.0000 0.0000
usemtl Material.002
s off
f 189//168 190//168 191//168 192//168
f 193//169 196//169 195//169 194//169
f 189//170 193//170 194//170 190//170
f 190//171 194//171 195//171 191//171
f 191//172 195//172 196//172 192//172
f 193//173 189//173 192//173 196//173
o Cube.003_Cube.004
v 2.478347 4.541096 0.171484
v -2.521232 4.541096 0.171483
v -2.521232 4.541096 -0.128517
v 2.478348 4.541096 -0.128516
v 2.478346 4.841096 0.171484
v -2.521234 4.841096 0.171483
v -2.521231 4.841096 -0.128517
v 2.478348 4.841096 -0.128516
v 2.478347 4.589234 0.178406
v -2.521232 4.589234 0.178406
v 2.478346 4.792958 0.178406
v -2.521234 4.792958 0.178406
v 2.478347 4.589234 0.200015
v -2.521232 4.589234 0.200014
v 2.478346 4.792958 0.200015
v -2.521234 4.792958 0.200014
vn 0.0000 -1.0000 0.0000
vn 0.0000 1.0000 0.0000
vn -0.0000 0.1423 0.9898
vn -1.0000 -0.0000 -0.0000
vn 0.0000 -0.0000 -1.0000
vn 1.0000 0.0000 0.0000
vn -0.0000 -0.1423 0.9898
vn -0.0000 0.0000 1.0000
usemtl Material.005
s off
f 197//174 198//174 199//174 200//174
f 201//175 204//175 203//175 202//175
f 201//176 202//176 208//176 207//176
f 198//177 202//177 203//177 199//177
f 199//178 203//178 204//178 200//178
f 201//179 197//179 200//179 204//179
f 208//177 206//177 210//177 212//177
f 202//177 198//177 206//177 208//177
f 197//179 201//179 207//179 205//179
f 198//180 197//180 205//180 206//180
f 209//181 211//181 212//181 210//181
f 206//174 205//174 209//174 210//174
f 207//175 208//175 212//175 211//175
f 205//179 207//179 211//179 209//179
o Cube.004_Cube.005
v 2.596311 4.541096 0.171483
v 2.476356 4.541096 0.171483
v 2.476356 4.541096 -0.128517
v 2.596311 4.541096 -0.128517
v 2.596311 4.841096 0.171484
v 2.476356 4.841096 0.171483
v 2.476356 4.841096 -0.128517
v 2.596311 4.841096 -0.128517
vn 0.0000 -1.0000 0.0000
vn 0.0000 1.0000 0.0000
vn -0.0000 0.0000 1.0000
vn -1.0000 0.0000 0.0000
vn 0.0000 -0.0000 -1.0000
vn 1.0000 -0.0000 0.0000
usemtl Material.006
s off
f 213//182 214//182 215//182 216//182
f 217//183 220//183 219//183 218//183
f 213//184 217//184 218//184 214//184
f 214//185 218//185 219//185 215//185
f 215//186 219//186 220//186 216//186
f 217//187 213//187 216//187 220//187
