{
    "accessors" : [
        {
            "bufferView" : 0,
            "componentType" : 5123,
            "count" : 108,
            "max" : [
                59
            ],
            "min" : [
                0
            ],
            "type" : "SCALAR"
        },
        {
            "bufferView" : 1,
            "componentType" : 5126,
            "count" : 60,
            "max" : [
                1.0000004768371582,
                1.0,
                1.0000005960464478
            ],
            "min" : [
                -1.0000004768371582,
                -1.0,
                -1.0000003576278687
            ],
            "type" : "VEC3"
        },
        {
            "bufferView" : 2,
            "componentType" : 5126,
            "count" : 60,
            "max" : [
                1.0,
                1.0,
                1.0
            ],
            "min" : [
                -1.0,
                -1.0,
                -1.0
            ],
            "type" : "VEC3"
        },
        {
            "bufferView" : 3,
            "componentType" : 5123,
            "count" : 108,
            "max" : [
                59
            ],
            "min" : [
                0
            ],
            "type" : "SCALAR"
        },
        {
            "bufferView" : 4,
            "componentType" : 5126,
            "count" : 60,
            "max" : [
                1.0000004768371582,
                1.0,
                0.032097816467285156
            ],
            "min" : [
                -1.0000004768371582,
                -1.0,
                -1.9679031372070312
            ],
            "type" : "VEC3"
        },
        {
            "bufferView" : 5,
            "componentType" : 5126,
            "count" : 60,
            "max" : [
                0.9999999403953552,
                1.0,
                1.0
            ],
            "min" : [
                -1.0,
                -1.0,
                -1.0
            ],
            "type" : "VEC3"
        },
        {
            "bufferView" : 6,
            "componentType" : 5123,
            "count" : 36,
            "max" : [
                23
            ],
            "min" : [
                0
            ],
            "type" : "SCALAR"
        },
        {
            "bufferView" : 7,
            "componentType" : 5126,
            "count" : 24,
            "max" : [
                1.0000004768371582,
                1.0,
                1.0000005960464478
            ],
            "min" : [
                -1.0000003576278687,
                -1.0,
                -1.0000003576278687
            ],
            "type" : "VEC3"
        },
        {
            "bufferView" : 8,
            "componentType" : 5126,
            "count" : 24,
            "max" : [
                1.0,
                1.0,
                1.0
            ],
            "min" : [
                -1.0,
                -1.0,
                -1.0
            ],
            "type" : "VEC3"
        },
        {
            "bufferView" : 9,
            "componentType" : 5123,
            "count" : 36,
            "max" : [
                23
            ],
            "min" : [
                0
            ],
            "type" : "SCALAR"
        },
        {
            "bufferView" : 10,
            "componentType" : 5126,
            "count" : 24,
            "max" : [
                1.0075902938842773,
                1.0075898170471191,
                -0.0187455415725708
            ],
            "min" : [
                -1.0075901746749878,
                -1.0075898170471191,
                -2.033926010131836
            ],
            "type" : "VEC3"
        },
        {
            "bufferView" : 11,
            "componentType" : 5126,
            "count" : 24,
            "max" : [
                1.0,
                1.0,
                1.0
            ],
            "min" : [
                -1.0,
                -1.0,
                -1.0
            ],
            "type" : "VEC3"
        },
        {
            "bufferView" : 12,
            "componentType" : 5123,
            "count" : 36,
            "max" : [
                23
            ],
            "min" : [
                0
            ],
            "type" : "SCALAR"
        },
        {
            "bufferView" : 13,
            "componentType" : 5126,
            "count" : 24,
            "max" : [
                1.0075902938842773,
                1.0075898170471191,
                -0.0187455415725708
            ],
            "min" : [
                -1.0075901746749878,
                -1.0075898170471191,
                -2.033926010131836
            ],
            "type" : "VEC3"
        },
        {
            "bufferView" : 14,
            "componentType" : 5126,
            "count" : 24,
            "max" : [
                1.0,
                1.0,
                1.0
            ],
            "min" : [
                -1.0,
                -1.0,
                -1.0
            ],
            "type" : "VEC3"
        },
        {
            "bufferView" : 15,
            "componentType" : 5123,
            "count" : 108,
            "max" : [
                59
            ],
            "min" : [
                0
            ],
            "type" : "SCALAR"
        },
        {
            "bufferView" : 16,
            "componentType" : 5126,
            "count" : 60,
            "max" : [
                1.0000004768371582,
                1.0,
                0.032097816467285156
            ],
            "min" : [
                -1.0000004768371582,
                -1.0,
                -1.9679031372070312
            ],
            "type" : "VEC3"
        },
        {
            "bufferView" : 17,
            "componentType" : 5126,
            "count" : 60,
            "max" : [
                0.9999999403953552,
                1.0,
                1.0
            ],
            "min" : [
                -1.0,
                -1.0,
                -1.0
            ],
            "type" : "VEC3"
        },
        {
            "bufferView" : 18,
            "componentType" : 5123,
            "count" : 198,
            "max" : [
                125
            ],
            "min" : [
                0
            ],
            "type" : "SCALAR"
        },
        {
            "bufferView" : 19,
            "componentType" : 5126,
            "count" : 126,
            "max" : [
                3.0913021564483643,
                1.0,
                1.0000005960464478
            ],
            "min" : [
                -1.001826286315918,
                -1.1732639074325562,
                -1.0000003576278687
            ],
            "type" : "VEC3"
        },
        {
            "bufferView" : 20,
            "componentType" : 5126,
            "count" : 126,
            "max" : [
                1.0,
                1.0,
                1.0
            ],
            "min" : [
                -1.0,
                -1.0,
                -1.0
            ],
            "type" : "VEC3"
        }
    ],
    "asset" : {
        "generator" : "Khronos Blender glTF 2.0 exporter",
        "version" : "2.0"
    },
    "bufferViews" : [
        {
            "buffer" : 0,
            "byteLength" : 216,
            "byteOffset" : 0,
            "target" : 34963
        },
        {
            "buffer" : 0,
            "byteLength" : 720,
            "byteOffset" : 216,
            "target" : 34962
        },
        {
            "buffer" : 0,
            "byteLength" : 720,
            "byteOffset" : 936,
            "target" : 34962
        },
        {
            "buffer" : 0,
            "byteLength" : 216,
            "byteOffset" : 1656,
            "target" : 34963
        },
        {
            "buffer" : 0,
            "byteLength" : 720,
            "byteOffset" : 1872,
            "target" : 34962
        },
        {
            "buffer" : 0,
            "byteLength" : 720,
            "byteOffset" : 2592,
            "target" : 34962
        },
        {
            "buffer" : 0,
            "byteLength" : 72,
            "byteOffset" : 3312,
            "target" : 34963
        },
        {
            "buffer" : 0,
            "byteLength" : 288,
            "byteOffset" : 3384,
            "target" : 34962
        },
        {
            "buffer" : 0,
            "byteLength" : 288,
            "byteOffset" : 3672,
            "target" : 34962
        },
        {
            "buffer" : 0,
            "byteLength" : 72,
            "byteOffset" : 3960,
            "target" : 34963
        },
        {
            "buffer" : 0,
            "byteLength" : 288,
            "byteOffset" : 4032,
            "target" : 34962
        },
        {
            "buffer" : 0,
            "byteLength" : 288,
            "byteOffset" : 4320,
            "target" : 34962
        },
        {
            "buffer" : 0,
            "byteLength" : 72,
            "byteOffset" : 4608,
            "target" : 34963
        },
        {
            "buffer" : 0,
            "byteLength" : 288,
            "byteOffset" : 4680,
            "target" : 34962
        },
        {
            "buffer" : 0,
            "byteLength" : 288,
            "byteOffset" : 4968,
            "target" : 34962
        },
        {
            "buffer" : 0,
            "byteLength" : 216,
            "byteOffset" : 5256,
            "target" : 34963
        },
        {
            "buffer" : 0,
            "byteLength" : 720,
            "byteOffset" : 5472,
            "target" : 34962
        },
        {
            "buffer" : 0,
            "byteLength" : 720,
            "byteOffset" : 6192,
            "target" : 34962
        },
        {
            "buffer" : 0,
            "byteLength" : 396,
            "byteOffset" : 6912,
            "target" : 34963
        },
        {
            "buffer" : 0,
            "byteLength" : 1512,
            "byteOffset" : 7308,
            "target" : 34962
        },
        {
            "buffer" : 0,
            "byteLength" : 1512,
            "byteOffset" : 8820,
            "target" : 34962
        }
    ],
    "buffers" : [
        {
            "byteLength" : 10332,
            "uri" : "blackboard.bin"
        }
    ],
    "materials" : [
        {
            "name" : "Material",
            "pbrMetallicRoughness" : {
                "baseColorFactor" : [
                    0.01802660104672016,
                    0.05468501530118308,
                    0.027984995066896,
                    1.0
                ],
                "metallicFactor" : 0.0
            }
        },
        {
            "name" : "Material.001",
            "pbrMetallicRoughness" : {
                "baseColorFactor" : [
                    0.6400000190734865,
                    0.6400000190734865,
                    0.6400000190734865,
                    1.0
                ],
                "metallicFactor" : 0.0
            }
        },
        {
            "name" : "Material.003",
            "pbrMetallicRoughness" : {
                "baseColorFactor" : [
                    0.6400000190734865,
                    0.6400000190734865,
                    0.6400000190734865,
                    1.0
                ],
                "metallicFactor" : 0.0
            }
        },
        {
            "name" : "Material.004",
            "pbrMetallicRoughness" : {
                "baseColorFactor" : [
                    0.6400000190734865,
                    0.6400000190734865,
                    0.6400000190734865,
                    1.0
                ],
                "metallicFactor" : 0.0
            }
        },
        {
            "name" : "Material.006",
            "pbrMetallicRoughness" : {
                "baseColorFactor" : [
                    0.01802660104672016,
                    0.05468501530118308,
                    0.027984995066896,
                    1.0
                ],
                "metallicFactor" : 0.0
            }
        },
        {
            "name" : "Material.007",
            "pbrMetallicRoughness" : {
                "baseColorFactor" : [
                    0.6400000190734865,
                    0.6400000190734865,
                    0.6400000190734865,
                    1.0
                ],
                "metallicFactor" : 0.0
            }
        },
        {
            "name" : "Material.008",
            "pbrMetallicRoughness" : {
                "baseColorFactor" : [
                    0.01802660104672016,
                    0.05468501530118308,
                    0.027984995066896,
                    1.0
                ],
                "metallicFactor" : 0.0
            }
        }
    ],
    "meshes" : [
        {
            "name" : "Cube.001",
            "primitives" : [
                {
                    "attributes" : {
                        "NORMAL" : 2,
                        "POSITION" : 1
                    },
                    "indices" : 0,
                    "material" : 1
                }
            ]
        },
        {
            "name" : "Cube.004",
            "primitives" : [
                {
                    "attributes" : {
                        "NORMAL" : 5,
                        "POSITION" : 4
                    },
                    "indices" : 3,
                    "material" : 3
                }
            ]
        },
        {
            "name" : "Cube",
            "primitives" : [
                {
                    "attributes" : {
                        "NORMAL" : 8,
                        "POSITION" : 7
                    },
                    "indices" : 6,
                    "material" : 0
                }
            ]
        },
        {
            "name" : "Cube.008",
            "primitives" : [
                {
                    "attributes" : {
                        "NORMAL" : 11,
                        "POSITION" : 10
                    },
                    "indices" : 9,
                    "material" : 6
                }
            ]
        },
        {
            "name" : "Cube.006",
            "primitives" : [
                {
                    "attributes" : {
                        "NORMAL" : 14,
                        "POSITION" : 13
                    },
                    "indices" : 12,
                    "material" : 4
                }
            ]
        },
        {
            "name" : "Cube.007",
            "primitives" : [
                {
                    "attributes" : {
                        "NORMAL" : 17,
                        "POSITION" : 16
                    },
                    "indices" : 15,
                    "material" : 5
                }
            ]
        },
        {
            "name" : "Cube.003",
            "primitives" : [
                {
                    "attributes" : {
                        "NORMAL" : 20,
                        "POSITION" : 19
                    },
                    "indices" : 18,
                    "material" : 2
                }
            ]
        }
    ],
    "nodes" : [
        {
            "mesh" : 2,
            "name" : "bord",
            "rotation" : [
                0.7071068286895752,
                -0.0,
                0.7071068286895752,
                0.0
            ],
            "scale" : [
                -0.022765569388866425,
                -1.130000114440918,
                -2.0
            ],
            "translation" : [
                0.0058691613376140594,
                0.0,
                -0.009380465373396873
            ]
        },
        {
            "mesh" : 0,
            "name" : "rand",
            "rotation" : [
                0.0,
                -0.7071068286895752,
                -0.0,
                0.7071068286895752
            ],
            "scale" : [
                0.07008477300405502,
                1.177662968635559,
                2.047576904296875
            ],
            "translation" : [
                0.005869162268936634,
                0.0,
                -0.0017319387989118695
            ]
        },
        {
            "mesh" : 6,
            "name" : "rand.001",
            "rotation" : [
                0.0,
                -0.7071068286895752,
                -0.0,
                0.7071068286895752
            ],
            "scale" : [
                0.041889432817697525,
                1.177662968635559,
                2.047576904296875
            ],
            "translation" : [
                0.005869162268936634,
                0.0,
                -0.0032704523764550686
            ]
        },
        {
            "mesh" : 4,
            "name" : "zijbord_rechts",
            "rotation" : [
                -0.6321702003479004,
                -0.0,
                -0.7748295664787292,
                0.0
            ],
            "scale" : [
                -0.022765569388866425,
                -1.130000114440918,
                -1.0
            ],
            "translation" : [
                2.1031978130340576,
                0.0,
                -0.009303003549575806
            ]
        },
        {
            "mesh" : 3,
            "name" : "zijbord_rechts.001",
            "rotation" : [
                0.6415766477584839,
                -0.0,
                -0.7670589685440063,
                0.0
            ],
            "scale" : [
                -0.022765569388866425,
                -1.130000114440918,
                -1.0
            ],
            "translation" : [
                -2.0838708877563477,
                0.0,
                0.010367132723331451
            ]
        },
        {
            "mesh" : 1,
            "name" : "zijbord_rechts_rand",
            "rotation" : [
                0.0,
                -0.774829626083374,
                -0.0,
                0.6321702003479004
            ],
            "scale" : [
                0.07008477300405502,
                1.177662968635559,
                1.0475801229476929
            ],
            "translation" : [
                2.1016623973846436,
                0.0,
                -0.001809984096325934
            ]
        },
        {
            "mesh" : 5,
            "name" : "zijbord_rechts_rand.001",
            "rotation" : [
                0.0,
                0.7670589089393616,
                -0.0,
                0.6415766477584839
            ],
            "scale" : [
                0.07008477300405502,
                1.177662968635559,
                1.0475800037384033
            ],
            "translation" : [
                -2.0852227210998535,
                0.0,
                0.002838829532265663
            ]
        }
    ],
    "scene" : 0,
    "scenes" : [
        {
            "name" : "Scene",
            "nodes" : [
                0,
                1,
                2,
                3,
                5,
                4,
                6
            ]
        }
    ]
}
